<svg xmlns="http://www.w3.org/2000/svg" xmlns:xlink="http://www.w3.org/1999/xlink" width="25.837" height="956.271" viewBox="0 0 25.837 956.271">
  <defs>
    <filter id="Polygon" x="0" y="0" width="25.837" height="25.835" filterUnits="userSpaceOnUse">
      <feOffset dy="3" input="SourceAlpha"/>
      <feGaussianBlur stdDeviation="2.5" result="blur"/>
      <feFlood flood-opacity="0.122"/>
      <feComposite operator="in" in2="blur"/>
      <feComposite in="SourceGraphic"/>
    </filter>
    <filter id="Polygon-2" x="0" y="259" width="25.837" height="25.835" filterUnits="userSpaceOnUse">
      <feOffset dy="3" input="SourceAlpha"/>
      <feGaussianBlur stdDeviation="2.5" result="blur-2"/>
      <feFlood flood-opacity="0.122"/>
      <feComposite operator="in" in2="blur-2"/>
      <feComposite in="SourceGraphic"/>
    </filter>
    <filter id="Polygon-3" x="0" y="520" width="25.837" height="25.835" filterUnits="userSpaceOnUse">
      <feOffset dy="3" input="SourceAlpha"/>
      <feGaussianBlur stdDeviation="2.5" result="blur-3"/>
      <feFlood flood-opacity="0.122"/>
      <feComposite operator="in" in2="blur-3"/>
      <feComposite in="SourceGraphic"/>
    </filter>
    <filter id="Polygon-4" x="0" y="781" width="25.837" height="25.835" filterUnits="userSpaceOnUse">
      <feOffset dy="3" input="SourceAlpha"/>
      <feGaussianBlur stdDeviation="2.5" result="blur-4"/>
      <feFlood flood-opacity="0.122"/>
      <feComposite operator="in" in2="blur-4"/>
      <feComposite in="SourceGraphic"/>
    </filter>
  </defs>
  <g id="Group_21" data-name="Group 21" transform="translate(17.918 4.918) rotate(90)">
    <rect id="Rectangle" width="950" height="2" transform="translate(1 4)" fill="#e7e7e8"/>
    <g transform="matrix(0, -1, 1, 0, -4.92, 17.92)" filter="url(#Polygon)">
      <g id="Polygon-5" data-name="Polygon" transform="translate(17.92 4.92) rotate(90)" fill="#fb9d1e" stroke-miterlimit="10">
        <path d="M 5 10.06128025054932 C 4.713809967041016 10.06128025054932 4.44474983215332 9.949830055236816 4.242380142211914 9.74746036529541 L 0.2525399923324585 5.757619857788086 C -0.1652099937200546 5.339869976043701 -0.1652099937200546 4.660130023956299 0.2525399923324585 4.242380142211914 L 4.242380142211914 0.2525399923324585 C 4.44474983215332 0.05017000064253807 4.713809967041016 -0.06128000095486641 5 -0.06128000095486641 C 5.286190032958984 -0.06128000095486641 5.55525016784668 0.05017000064253807 5.757619857788086 0.2525399923324585 L 9.74746036529541 4.242380142211914 C 10.16520977020264 4.660130023956299 10.16520977020264 5.339869976043701 9.74746036529541 5.757619857788086 L 5.757619857788086 9.74746036529541 C 5.55525016784668 9.949830055236816 5.286190032958984 10.06128025054932 5 10.06128025054932 Z" stroke="none"/>
        <path d="M 5 0.295867919921875 C 4.817197322845459 0.295867919921875 4.634395122528076 0.365605354309082 4.494919776916504 0.5050802230834961 L 0.5050802230834961 4.494919776916504 C 0.2261295318603516 4.77386999130249 0.2261295318603516 5.22613000869751 0.5050802230834961 5.505080223083496 L 4.494919776916504 9.494919776916504 C 4.634395122528076 9.634394645690918 4.817197322845459 9.704132080078125 5 9.704132080078125 C 5.182802677154541 9.704132080078125 5.365604877471924 9.634394645690918 5.505080223083496 9.494919776916504 L 9.494919776916504 5.505080223083496 C 9.773870468139648 5.22613000869751 9.773870468139648 4.77386999130249 9.494919776916504 4.494919776916504 L 5.505080223083496 0.5050802230834961 C 5.365604877471924 0.365605354309082 5.182802677154541 0.295867919921875 5 0.295867919921875 M 5 -0.4184198379516602 C 5.381589889526367 -0.4184198379516602 5.740330219268799 -0.2698202133178711 6.010159969329834 0 L 10 3.989840030670166 C 10.55700016021729 4.546850204467773 10.55700016021729 5.453149795532227 10 6.010159969329834 L 6.010159969329834 10 C 5.740310192108154 10.26982021331787 5.381569862365723 10.41841983795166 5 10.41841983795166 C 4.618410110473633 10.41841983795166 4.259669780731201 10.26982021331787 3.989840030670166 10 L 0 6.010159969329834 C -0.5570001602172852 5.453149795532227 -0.5570001602172852 4.546850204467773 0 3.989840030670166 L 3.989840030670166 0 C 4.259640216827393 -0.2698097229003906 4.618390083312988 -0.4184198379516602 5 -0.4184198379516602 Z" stroke="none" fill="#fff"/>
      </g>
    </g>
    <g transform="matrix(0, -1, 1, 0, -4.92, 17.92)" filter="url(#Polygon-2)">
      <g id="Polygon-6" data-name="Polygon" transform="translate(17.92 263.92) rotate(90)" fill="#fb9d1e" stroke-miterlimit="10">
        <path d="M 5 10.06128025054932 C 4.713809967041016 10.06128025054932 4.44474983215332 9.949830055236816 4.242380142211914 9.74746036529541 L 0.2525399923324585 5.757619857788086 C -0.1652099937200546 5.339869976043701 -0.1652099937200546 4.660130023956299 0.2525399923324585 4.242380142211914 L 4.242380142211914 0.2525399923324585 C 4.44474983215332 0.05017000064253807 4.713809967041016 -0.06128000095486641 5 -0.06128000095486641 C 5.286190032958984 -0.06128000095486641 5.55525016784668 0.05017000064253807 5.757619857788086 0.2525399923324585 L 9.74746036529541 4.242380142211914 C 10.16520977020264 4.660130023956299 10.16520977020264 5.339869976043701 9.74746036529541 5.757619857788086 L 5.757619857788086 9.74746036529541 C 5.55525016784668 9.949830055236816 5.286190032958984 10.06128025054932 5 10.06128025054932 Z" stroke="none"/>
        <path d="M 5 0.295867919921875 C 4.817197322845459 0.295867919921875 4.634395122528076 0.365605354309082 4.494919776916504 0.5050802230834961 L 0.5050802230834961 4.494919776916504 C 0.2261295318603516 4.77386999130249 0.2261295318603516 5.22613000869751 0.5050802230834961 5.505080223083496 L 4.494919776916504 9.494919776916504 C 4.634395122528076 9.634394645690918 4.817197322845459 9.704132080078125 5 9.704132080078125 C 5.182802677154541 9.704132080078125 5.365604877471924 9.634394645690918 5.505080223083496 9.494919776916504 L 9.494919776916504 5.505080223083496 C 9.773870468139648 5.22613000869751 9.773870468139648 4.77386999130249 9.494919776916504 4.494919776916504 L 5.505080223083496 0.5050802230834961 C 5.365604877471924 0.365605354309082 5.182802677154541 0.295867919921875 5 0.295867919921875 M 5 -0.4184198379516602 C 5.381589889526367 -0.4184198379516602 5.740330219268799 -0.2698202133178711 6.010159969329834 0 L 10 3.989840030670166 C 10.55700016021729 4.546850204467773 10.55700016021729 5.453149795532227 10 6.010159969329834 L 6.010159969329834 10 C 5.740310192108154 10.26982021331787 5.381569862365723 10.41841983795166 5 10.41841983795166 C 4.618410110473633 10.41841983795166 4.259669780731201 10.26982021331787 3.989840030670166 10 L 0 6.010159969329834 C -0.5570001602172852 5.453149795532227 -0.5570001602172852 4.546850204467773 0 3.989840030670166 L 3.989840030670166 0 C 4.259640216827393 -0.2698097229003906 4.618390083312988 -0.4184198379516602 5 -0.4184198379516602 Z" stroke="none" fill="#fff"/>
      </g>
    </g>
    <g transform="matrix(0, -1, 1, 0, -4.92, 17.92)" filter="url(#Polygon-3)">
      <g id="Polygon-7" data-name="Polygon" transform="translate(17.92 524.92) rotate(90)" fill="#fb9d1e" stroke-miterlimit="10">
        <path d="M 5 10.06128025054932 C 4.713809967041016 10.06128025054932 4.44474983215332 9.949830055236816 4.242380142211914 9.74746036529541 L 0.2525399923324585 5.757619857788086 C -0.1652099937200546 5.339869976043701 -0.1652099937200546 4.660130023956299 0.2525399923324585 4.242380142211914 L 4.242380142211914 0.2525399923324585 C 4.44474983215332 0.05017000064253807 4.713809967041016 -0.06128000095486641 5 -0.06128000095486641 C 5.286190032958984 -0.06128000095486641 5.55525016784668 0.05017000064253807 5.757619857788086 0.2525399923324585 L 9.74746036529541 4.242380142211914 C 10.16520977020264 4.660130023956299 10.16520977020264 5.339869976043701 9.74746036529541 5.757619857788086 L 5.757619857788086 9.74746036529541 C 5.55525016784668 9.949830055236816 5.286190032958984 10.06128025054932 5 10.06128025054932 Z" stroke="none"/>
        <path d="M 5 0.295867919921875 C 4.817197322845459 0.295867919921875 4.634395122528076 0.365605354309082 4.494919776916504 0.5050802230834961 L 0.5050802230834961 4.494919776916504 C 0.2261295318603516 4.77386999130249 0.2261295318603516 5.22613000869751 0.5050802230834961 5.505080223083496 L 4.494919776916504 9.494919776916504 C 4.634395122528076 9.634394645690918 4.817197322845459 9.704132080078125 5 9.704132080078125 C 5.182802677154541 9.704132080078125 5.365604877471924 9.634394645690918 5.505080223083496 9.494919776916504 L 9.494919776916504 5.505080223083496 C 9.773870468139648 5.22613000869751 9.773870468139648 4.77386999130249 9.494919776916504 4.494919776916504 L 5.505080223083496 0.5050802230834961 C 5.365604877471924 0.365605354309082 5.182802677154541 0.295867919921875 5 0.295867919921875 M 5 -0.4184198379516602 C 5.381589889526367 -0.4184198379516602 5.740330219268799 -0.2698202133178711 6.010159969329834 0 L 10 3.989840030670166 C 10.55700016021729 4.546850204467773 10.55700016021729 5.453149795532227 10 6.010159969329834 L 6.010159969329834 10 C 5.740310192108154 10.26982021331787 5.381569862365723 10.41841983795166 5 10.41841983795166 C 4.618410110473633 10.41841983795166 4.259669780731201 10.26982021331787 3.989840030670166 10 L 0 6.010159969329834 C -0.5570001602172852 5.453149795532227 -0.5570001602172852 4.546850204467773 0 3.989840030670166 L 3.989840030670166 0 C 4.259640216827393 -0.2698097229003906 4.618390083312988 -0.4184198379516602 5 -0.4184198379516602 Z" stroke="none" fill="#fff"/>
      </g>
    </g>
    <g transform="matrix(0, -1, 1, 0, -4.92, 17.92)" filter="url(#Polygon-4)">
      <g id="Polygon-8" data-name="Polygon" transform="translate(17.92 785.92) rotate(90)" fill="#fb9d1e" stroke-miterlimit="10">
        <path d="M 5 10.06128025054932 C 4.713809967041016 10.06128025054932 4.44474983215332 9.949830055236816 4.242380142211914 9.74746036529541 L 0.2525399923324585 5.757619857788086 C -0.1652099937200546 5.339869976043701 -0.1652099937200546 4.660130023956299 0.2525399923324585 4.242380142211914 L 4.242380142211914 0.2525399923324585 C 4.44474983215332 0.05017000064253807 4.713809967041016 -0.06128000095486641 5 -0.06128000095486641 C 5.286190032958984 -0.06128000095486641 5.55525016784668 0.05017000064253807 5.757619857788086 0.2525399923324585 L 9.74746036529541 4.242380142211914 C 10.16520977020264 4.660130023956299 10.16520977020264 5.339869976043701 9.74746036529541 5.757619857788086 L 5.757619857788086 9.74746036529541 C 5.55525016784668 9.949830055236816 5.286190032958984 10.06128025054932 5 10.06128025054932 Z" stroke="none"/>
        <path d="M 5 0.295867919921875 C 4.817197322845459 0.295867919921875 4.634395122528076 0.365605354309082 4.494919776916504 0.5050802230834961 L 0.5050802230834961 4.494919776916504 C 0.2261295318603516 4.77386999130249 0.2261295318603516 5.22613000869751 0.5050802230834961 5.505080223083496 L 4.494919776916504 9.494919776916504 C 4.634395122528076 9.634394645690918 4.817197322845459 9.704132080078125 5 9.704132080078125 C 5.182802677154541 9.704132080078125 5.365604877471924 9.634394645690918 5.505080223083496 9.494919776916504 L 9.494919776916504 5.505080223083496 C 9.773870468139648 5.22613000869751 9.773870468139648 4.77386999130249 9.494919776916504 4.494919776916504 L 5.505080223083496 0.5050802230834961 C 5.365604877471924 0.365605354309082 5.182802677154541 0.295867919921875 5 0.295867919921875 M 5 -0.4184198379516602 C 5.381589889526367 -0.4184198379516602 5.740330219268799 -0.2698202133178711 6.010159969329834 0 L 10 3.989840030670166 C 10.55700016021729 4.546850204467773 10.55700016021729 5.453149795532227 10 6.010159969329834 L 6.010159969329834 10 C 5.740310192108154 10.26982021331787 5.381569862365723 10.41841983795166 5 10.41841983795166 C 4.618410110473633 10.41841983795166 4.259669780731201 10.26982021331787 3.989840030670166 10 L 0 6.010159969329834 C -0.5570001602172852 5.453149795532227 -0.5570001602172852 4.546850204467773 0 3.989840030670166 L 3.989840030670166 0 C 4.259640216827393 -0.2698097229003906 4.618390083312988 -0.4184198379516602 5 -0.4184198379516602 Z" stroke="none" fill="#fff"/>
      </g>
    </g>
    <path id="Polygon-9" data-name="Polygon" d="M3.646.354a.5.5,0,0,1,.707,0L7.646,3.646a.5.5,0,0,1,0,.707L4.354,7.646a.5.5,0,0,1-.707,0L.354,4.354a.5.5,0,0,1,0-.707Z" transform="translate(943 1)" fill="#fff" stroke="#e7e7e8" stroke-miterlimit="10" stroke-width="1"/>
  </g>
</svg>
