<svg id="Group_14" data-name="Group 14" xmlns="http://www.w3.org/2000/svg" width="24" height="24" viewBox="0 0 24 24">
  <g id="Group_15" data-name="Group 15">
    <g id="local_fire_department-24px">
      <rect id="Rectangle" width="24" height="24" fill="none"/>
      <path id="Shape" d="M6.81,20.414A8.052,8.052,0,0,1,0,12.874a9.407,9.407,0,0,1,1.37-5.25.5.5,0,0,1,.91.34,4.982,4.982,0,0,0,1.841,4.75.5.5,0,0,0,.75-.59A9.33,9.33,0,0,1,8.92.074a.5.5,0,0,1,.75.55c-1.35,5.93,4.241,6.151,5.81,10.23a6.914,6.914,0,0,1-1.72,7.69A8.07,8.07,0,0,1,8.222,20.5,11.163,11.163,0,0,1,6.81,20.414Z" transform="translate(4 1.496)" fill="#fb9d1e"/>
    </g>
  </g>
</svg>
