<svg id="Group" xmlns="http://www.w3.org/2000/svg" xmlns:xlink="http://www.w3.org/1999/xlink" width="118.856" height="35.504" viewBox="0 0 118.856 35.504">
  <defs>
    <linearGradient id="linear-gradient" x1="-6" y1="2.229" x2="15.848" y2="-3.582" gradientUnits="objectBoundingBox">
      <stop offset="0" stop-color="#eb2323"/>
      <stop offset="1" stop-color="#f69c23"/>
    </linearGradient>
    <clipPath id="clip-path">
      <path id="Clip_10007" data-name="Clip 10007" d="M0,4.256,6.771,10.61l.05.049h8.171q-1.3-1.244-2.018-1.992h0Q12.25,7.919,11.7,7.4h0q-.55-.523-1.073-1.046h0L9.212,4.93h0q-.9-.9-2.316-2.292h0C5.949,1.708,5.783,1.529,4.254,0h0Z" transform="translate(0.061 0.31)" fill="none"/>
    </clipPath>
    <linearGradient id="linear-gradient-2" x1="-0.265" y1="1.776" x2="3.696" y2="-3.795" xlink:href="#linear-gradient"/>
    <clipPath id="clip-path-2">
      <path id="Clip_10010" data-name="Clip 10010" d="M0,0V35H6.626V28.821L16.89,18.558q3.837-3.835,8.52-8.469H17.189L6.626,20.2V0Z" transform="translate(0.527 0.027)" fill="none"/>
    </clipPath>
    <linearGradient id="linear-gradient-3" x1="-0.627" y1="1.05" x2="3.838" y2="-2.191" xlink:href="#linear-gradient"/>
    <clipPath id="clip-path-3">
      <path id="Clip_10013" data-name="Clip 10013" d="M12.745,25.489A12.744,12.744,0,0,1,3.733,3.733,12.744,12.744,0,1,1,21.756,21.756,12.66,12.66,0,0,1,12.745,25.489Zm0-19.552a6.807,6.807,0,1,0,6.806,6.807A6.814,6.814,0,0,0,12.745,5.937Z" transform="translate(0.502 0.587)" fill="none"/>
    </clipPath>
    <linearGradient id="linear-gradient-4" x1="0.146" y1="0.854" x2="0.854" y2="0.146" xlink:href="#linear-gradient"/>
    <clipPath id="clip-path-4">
      <path id="Clip_10016" data-name="Clip 10016" d="M0,35.1H6.626V31.691a9.058,9.058,0,0,0,7.88,3.814h0a12.688,12.688,0,0,0,5.017-1h0a12.894,12.894,0,0,0,4.117-2.761h0a13.26,13.26,0,0,0,2.785-4.115h0a12.4,12.4,0,0,0,1.029-5.019h0a12.416,12.416,0,0,0-1.029-5.019h0a13.275,13.275,0,0,0-2.785-4.115h0a12.905,12.905,0,0,0-4.117-2.76h0a12.676,12.676,0,0,0-5.017-1.005h0a10.865,10.865,0,0,0-3.621.577h0v5.987l.007.012.049-.05a7.151,7.151,0,0,1,2.711-.552h0a6.982,6.982,0,0,1,2.685.528h0a6.487,6.487,0,0,1,2.208,1.48h0A7.455,7.455,0,0,1,20.026,19.9h0a6.659,6.659,0,0,1,.552,2.711h0a6.647,6.647,0,0,1-.552,2.71h0A7.1,7.1,0,0,1,18.545,27.5h0a7,7,0,0,1-2.208,1.481h0a6.711,6.711,0,0,1-2.685.552h0a6.824,6.824,0,0,1-2.735-.552h0A7,7,0,0,1,8.708,27.5h0a7.1,7.1,0,0,1-1.481-2.183h0a6.646,6.646,0,0,1-.552-2.71h0V.113L0,0Z" transform="translate(0.164 0.027)" fill="none"/>
    </clipPath>
    <linearGradient id="linear-gradient-5" x1="-0.135" y1="0.884" x2="0.689" y2="0.247" xlink:href="#linear-gradient"/>
    <clipPath id="clip-path-5">
      <path id="Clip_10019" data-name="Clip 10019" d="M.178,10.683A12.993,12.993,0,0,0,0,12.8H0A12.806,12.806,0,0,0,12.805,25.61h0a12.781,12.781,0,0,0,9.88-4.657h0c.167-.2.326-.412.481-.625h0l.07-.072a13.354,13.354,0,0,0,.817-1.327h0a4.206,4.206,0,0,0,.223-.469h0l-7.367.011a6.322,6.322,0,0,1-1.719.91h0a7.029,7.029,0,0,1-.915.235h0a6.924,6.924,0,0,1-1.47.158h0a6.925,6.925,0,0,1-6.925-6.925h0a6.909,6.909,0,0,1,.346-2.166h0a6.947,6.947,0,0,1,4.242-4.355h0a6.9,6.9,0,0,1,2.337-.405h0a6.992,6.992,0,0,1,1.225.109h0a6.938,6.938,0,0,1,5.355,4.65h0l-.533,0h-6.8l.031,5.081H25.23l.05-.1a12.8,12.8,0,0,0,.3-2.79h0a13.173,13.173,0,0,0-.184-2.2h0a12.1,12.1,0,0,0-.838-2.836h0a13.176,13.176,0,0,0-2.765-4.086h0A13.177,13.177,0,0,0,17.707,1h0A12.164,12.164,0,0,0,16.2.459h0A12.811,12.811,0,0,0,12.805,0h0A12.807,12.807,0,0,0,.178,10.683" transform="translate(0.105 0.479)" fill="none"/>
    </clipPath>
    <linearGradient id="linear-gradient-6" x1="-2.631" y1="3.628" x2="1.545" y2="-0.543" xlink:href="#linear-gradient"/>
    <clipPath id="clip-path-6">
      <path id="Clip_10022" data-name="Clip 10022" d="M0,3.344A3.343,3.343,0,0,0,3.343,6.687h0A3.343,3.343,0,0,0,6.686,3.344h0A3.343,3.343,0,0,0,3.343,0h0A3.343,3.343,0,0,0,0,3.344" transform="translate(0.182 0.11)" fill="none"/>
    </clipPath>
    <linearGradient id="linear-gradient-7" x1="0.146" y1="0.854" x2="0.854" y2="0.146" xlink:href="#linear-gradient"/>
  </defs>
  <path id="Fill_10004" data-name="Fill 10004" d="M0,24.911H6.625V0H0Z" transform="translate(27.484 10.089)" fill="url(#linear-gradient)"/>
  <g id="Group_10008" data-name="Group 10008" transform="translate(10.158 24.03)">
    <path id="Clip_10007-2" data-name="Clip 10007" d="M0,4.256,6.771,10.61l.05.049h8.171q-1.3-1.244-2.018-1.992h0Q12.25,7.919,11.7,7.4h0q-.55-.523-1.073-1.046h0L9.212,4.93h0q-.9-.9-2.316-2.292h0C5.949,1.708,5.783,1.529,4.254,0h0Z" transform="translate(0.061 0.31)" fill="none"/>
    <g id="Group_10008-2" data-name="Group 10008" clip-path="url(#clip-path)">
      <path id="Fill_10006" data-name="Fill 10006" d="M0,4.256,6.771,10.61l.05.049h8.171q-1.3-1.244-2.018-1.992h0Q12.25,7.919,11.7,7.4h0q-.55-.523-1.073-1.046h0L9.212,4.93h0q-.9-.9-2.316-2.292h0C5.949,1.708,5.783,1.529,4.254,0h0Z" transform="translate(0.061 0.31)" fill="url(#linear-gradient-2)"/>
    </g>
  </g>
  <g id="Group_10011" data-name="Group 10011" transform="translate(-0.527 -0.027)">
    <path id="Clip_10010-2" data-name="Clip 10010" d="M0,0V35H6.626V28.821L16.89,18.558q3.837-3.835,8.52-8.469H17.189L6.626,20.2V0Z" transform="translate(0.527 0.027)" fill="none"/>
    <g id="Group_10011-2" data-name="Group 10011" clip-path="url(#clip-path-2)">
      <path id="Fill_10009" data-name="Fill 10009" d="M0,0V35H6.626V28.821L16.89,18.558q3.837-3.835,8.52-8.469H17.189L6.626,20.2V0Z" transform="translate(0.527 0.027)" fill="url(#linear-gradient-3)"/>
    </g>
  </g>
  <g id="Group_10014" data-name="Group 10014" transform="translate(35.637 9.236)">
    <path id="Clip_10013-2" data-name="Clip 10013" d="M12.745,25.489A12.744,12.744,0,0,1,3.733,3.733,12.744,12.744,0,1,1,21.756,21.756,12.66,12.66,0,0,1,12.745,25.489Zm0-19.552a6.807,6.807,0,1,0,6.806,6.807A6.814,6.814,0,0,0,12.745,5.937Z" transform="translate(0.502 0.587)" fill="none"/>
    <g id="Group_10014-2" data-name="Group 10014" clip-path="url(#clip-path-3)">
      <path id="Fill_10012" data-name="Fill 10012" d="M12.745,25.489A12.744,12.744,0,0,1,3.733,3.733,12.744,12.744,0,1,1,21.756,21.756,12.66,12.66,0,0,1,12.745,25.489Zm0-19.552a6.807,6.807,0,1,0,6.806,6.807A6.814,6.814,0,0,0,12.745,5.937Z" transform="translate(0.502 0.587)" fill="url(#linear-gradient-4)"/>
    </g>
  </g>
  <g id="Group_10017" data-name="Group 10017" transform="translate(63.583 -0.027)">
    <path id="Clip_10016-2" data-name="Clip 10016" d="M0,35.1H6.626V31.691a9.058,9.058,0,0,0,7.88,3.814h0a12.688,12.688,0,0,0,5.017-1h0a12.894,12.894,0,0,0,4.117-2.761h0a13.26,13.26,0,0,0,2.785-4.115h0a12.4,12.4,0,0,0,1.029-5.019h0a12.416,12.416,0,0,0-1.029-5.019h0a13.275,13.275,0,0,0-2.785-4.115h0a12.905,12.905,0,0,0-4.117-2.76h0a12.676,12.676,0,0,0-5.017-1.005h0a10.865,10.865,0,0,0-3.621.577h0v5.987l.007.012.049-.05a7.151,7.151,0,0,1,2.711-.552h0a6.982,6.982,0,0,1,2.685.528h0a6.487,6.487,0,0,1,2.208,1.48h0A7.455,7.455,0,0,1,20.026,19.9h0a6.659,6.659,0,0,1,.552,2.711h0a6.647,6.647,0,0,1-.552,2.71h0A7.1,7.1,0,0,1,18.545,27.5h0a7,7,0,0,1-2.208,1.481h0a6.711,6.711,0,0,1-2.685.552h0a6.824,6.824,0,0,1-2.735-.552h0A7,7,0,0,1,8.708,27.5h0a7.1,7.1,0,0,1-1.481-2.183h0a6.646,6.646,0,0,1-.552-2.71h0V.113L0,0Z" transform="translate(0.164 0.027)" fill="none"/>
    <g id="Group_10017-2" data-name="Group 10017" clip-path="url(#clip-path-4)">
      <path id="Fill_10015" data-name="Fill 10015" d="M0,35.1H6.626V31.691a9.058,9.058,0,0,0,7.88,3.814h0a12.688,12.688,0,0,0,5.017-1h0a12.894,12.894,0,0,0,4.117-2.761h0a13.26,13.26,0,0,0,2.785-4.115h0a12.4,12.4,0,0,0,1.029-5.019h0a12.416,12.416,0,0,0-1.029-5.019h0a13.275,13.275,0,0,0-2.785-4.115h0a12.905,12.905,0,0,0-4.117-2.76h0a12.676,12.676,0,0,0-5.017-1.005h0a10.865,10.865,0,0,0-3.621.577h0v5.987l.007.012.049-.05a7.151,7.151,0,0,1,2.711-.552h0a6.982,6.982,0,0,1,2.685.528h0a6.487,6.487,0,0,1,2.208,1.48h0A7.455,7.455,0,0,1,20.026,19.9h0a6.659,6.659,0,0,1,.552,2.711h0a6.647,6.647,0,0,1-.552,2.71h0A7.1,7.1,0,0,1,18.545,27.5h0a7,7,0,0,1-2.208,1.481h0a6.711,6.711,0,0,1-2.685.552h0a6.824,6.824,0,0,1-2.735-.552h0A7,7,0,0,1,8.708,27.5h0a7.1,7.1,0,0,1-1.481-2.183h0a6.646,6.646,0,0,1-.552-2.71h0V.113L0,0Z" transform="translate(0.164 0.027)" fill="url(#linear-gradient-5)"/>
    </g>
  </g>
  <g id="Group_10020" data-name="Group 10020" transform="translate(93.171 9.236)">
    <path id="Clip_10019-2" data-name="Clip 10019" d="M.178,10.683A12.993,12.993,0,0,0,0,12.8H0A12.806,12.806,0,0,0,12.805,25.61h0a12.781,12.781,0,0,0,9.88-4.657h0c.167-.2.326-.412.481-.625h0l.07-.072a13.354,13.354,0,0,0,.817-1.327h0a4.206,4.206,0,0,0,.223-.469h0l-7.367.011a6.322,6.322,0,0,1-1.719.91h0a7.029,7.029,0,0,1-.915.235h0a6.924,6.924,0,0,1-1.47.158h0a6.925,6.925,0,0,1-6.925-6.925h0a6.909,6.909,0,0,1,.346-2.166h0a6.947,6.947,0,0,1,4.242-4.355h0a6.9,6.9,0,0,1,2.337-.405h0a6.992,6.992,0,0,1,1.225.109h0a6.938,6.938,0,0,1,5.355,4.65h0l-.533,0h-6.8l.031,5.081H25.23l.05-.1a12.8,12.8,0,0,0,.3-2.79h0a13.173,13.173,0,0,0-.184-2.2h0a12.1,12.1,0,0,0-.838-2.836h0a13.176,13.176,0,0,0-2.765-4.086h0A13.177,13.177,0,0,0,17.707,1h0A12.164,12.164,0,0,0,16.2.459h0A12.811,12.811,0,0,0,12.805,0h0A12.807,12.807,0,0,0,.178,10.683" transform="translate(0.105 0.479)" fill="none"/>
    <g id="Group_10020-2" data-name="Group 10020" clip-path="url(#clip-path-5)">
      <path id="Fill_10018" data-name="Fill 10018" d="M.178,10.683A12.993,12.993,0,0,0,0,12.8H0A12.806,12.806,0,0,0,12.805,25.61h0a12.781,12.781,0,0,0,9.88-4.657h0c.167-.2.326-.412.481-.625h0l.07-.072a13.354,13.354,0,0,0,.817-1.327h0a4.206,4.206,0,0,0,.223-.469h0l-7.367.011a6.322,6.322,0,0,1-1.719.91h0a7.029,7.029,0,0,1-.915.235h0a6.924,6.924,0,0,1-1.47.158h0a6.925,6.925,0,0,1-6.925-6.925h0a6.909,6.909,0,0,1,.346-2.166h0a6.947,6.947,0,0,1,4.242-4.355h0a6.9,6.9,0,0,1,2.337-.405h0a6.992,6.992,0,0,1,1.225.109h0a6.938,6.938,0,0,1,5.355,4.65h0l-.533,0h-6.8l.031,5.081H25.23l.05-.1a12.8,12.8,0,0,0,.3-2.79h0a13.173,13.173,0,0,0-.184-2.2h0a12.1,12.1,0,0,0-.838-2.836h0a13.176,13.176,0,0,0-2.765-4.086h0A13.177,13.177,0,0,0,17.707,1h0A12.164,12.164,0,0,0,16.2.459h0A12.811,12.811,0,0,0,12.805,0h0A12.807,12.807,0,0,0,.178,10.683" transform="translate(0.105 0.479)" fill="url(#linear-gradient-6)"/>
    </g>
  </g>
  <g id="Group_10023" data-name="Group 10023" transform="translate(27.197 0.795)">
    <path id="Clip_10022-2" data-name="Clip 10022" d="M0,3.344A3.343,3.343,0,0,0,3.343,6.687h0A3.343,3.343,0,0,0,6.686,3.344h0A3.343,3.343,0,0,0,3.343,0h0A3.343,3.343,0,0,0,0,3.344" transform="translate(0.182 0.11)" fill="none"/>
    <g id="Group_10023-2" data-name="Group 10023" clip-path="url(#clip-path-6)">
      <path id="Fill_10021" data-name="Fill 10021" d="M0,3.344A3.343,3.343,0,0,0,3.343,6.687h0A3.343,3.343,0,0,0,6.686,3.344h0A3.343,3.343,0,0,0,3.343,0h0A3.343,3.343,0,0,0,0,3.344" transform="translate(0.182 0.11)" fill="url(#linear-gradient-7)"/>
    </g>
  </g>
</svg>
