<svg xmlns="http://www.w3.org/2000/svg" xmlns:xlink="http://www.w3.org/1999/xlink" width="41.339" height="41.339" viewBox="0 0 41.339 41.339">
  <defs>
    <filter id="Polygon" x="0" y="0" width="41.339" height="41.339" filterUnits="userSpaceOnUse">
      <feOffset dy="5" input="SourceAlpha"/>
      <feGaussianBlur stdDeviation="4" result="blur"/>
      <feFlood flood-opacity="0.122"/>
      <feComposite operator="in" in2="blur"/>
      <feComposite in="SourceGraphic"/>
    </filter>
  </defs>
  <g transform="matrix(1, 0, 0, 1, 0, 0)" filter="url(#Polygon)">
    <g id="Polygon-2" data-name="Polygon" transform="translate(12.67 7.67)" fill="#fb9d1e" stroke-miterlimit="10">
      <path d="M 8 16.0980396270752 C 7.542099952697754 16.0980396270752 7.111599922180176 15.9197301864624 6.787819862365723 15.59593963623047 L 0.4040600061416626 9.212180137634277 C 0.08026999980211258 8.888400077819824 -0.09803999960422516 8.457900047302246 -0.09803999960422516 8 C -0.09803999960422516 7.542099952697754 0.08026999980211258 7.111599922180176 0.4040600061416626 6.787819862365723 L 6.787819862365723 0.4040600061416626 C 7.111599922180176 0.08026999980211258 7.542099952697754 -0.09803999960422516 8 -0.09803999960422516 C 8.457900047302246 -0.09803999960422516 8.888400077819824 0.08026999980211258 9.212180137634277 0.4040600061416626 L 15.59593963623047 6.787819862365723 C 15.9197301864624 7.111599922180176 16.0980396270752 7.542099952697754 16.0980396270752 8 C 16.0980396270752 8.457900047302246 15.9197301864624 8.888400077819824 15.59593963623047 9.212180137634277 L 9.212180137634277 15.59593963623047 C 8.888400077819824 15.9197301864624 8.457900047302246 16.0980396270752 8 16.0980396270752 Z" stroke="none"/>
      <path d="M 8 0.4733877182006836 C 7.707517623901367 0.4733877182006836 7.415035247802734 0.5849647521972656 7.191880226135254 0.8081197738647461 L 0.8081197738647461 7.191880226135254 C 0.3618097305297852 7.638190269470215 0.3618097305297852 8.361810684204102 0.8081197738647461 8.808119773864746 L 7.191880226135254 15.19188022613525 C 7.638190269470215 15.63819026947021 8.361810684204102 15.63819026947021 8.808119773864746 15.19188022613525 L 15.19188022613525 8.808119773864746 C 15.63819026947021 8.361810684204102 15.63819026947021 7.638190269470215 15.19188022613525 7.191880226135254 L 8.808119773864746 0.8081197738647461 C 8.584964752197266 0.5849647521972656 8.292482376098633 0.4733877182006836 8 0.4733877182006836 M 8 -0.6694698333740234 C 8.610540390014648 -0.6694698333740234 9.184530258178711 -0.4317092895507812 9.616239547729492 0 L 16 6.383760452270508 C 16.43170928955078 6.815469741821289 16.66946983337402 7.389459609985352 16.66946983337402 8 C 16.66946983337402 8.610540390014648 16.43170928955078 9.184530258178711 16 9.616239547729492 L 9.616239547729492 16 C 9.184510231018066 16.43172073364258 8.610519409179688 16.66946983337402 8 16.66946983337402 C 7.389459609985352 16.66946983337402 6.815469741821289 16.43170928955078 6.383760452270508 16 L 0 9.616239547729492 C -0.4317092895507812 9.184530258178711 -0.6694698333740234 8.610540390014648 -0.6694698333740234 8 C -0.6694698333740234 7.389459609985352 -0.4317092895507812 6.815469741821289 0 6.383760452270508 L 6.383760452270508 0 C 6.81544017791748 -0.4317092895507812 7.389439582824707 -0.6694698333740234 8 -0.6694698333740234 Z" stroke="none" fill="#fff"/>
    </g>
  </g>
</svg>
